<svg xmlns="http://www.w3.org/2000/svg" width="199" height="80" viewBox="0 0 199 80">
  <defs>
    <style>
      .cls-1 {
        fill: rgba(255,255,255,0);
      }

      .cls-2 {
        fill: #999;
      }
    </style>
  </defs>
  <g id="Group_8001" data-name="Group 8001" transform="translate(-692 -2116.125)">
    <rect id="Rectangle_3132" data-name="Rectangle 3132" class="cls-1" width="199" height="80" transform="translate(692 2116.125)"/>
    <path id="union-23" class="cls-2" d="M18,14.39a9.93,9.93,0,0,1-9.737,7.96H0V1.223H8.263A10.185,10.185,0,0,1,18,9.187L29.509,0V.005l3.248,2.753-10.92,8.574L24.2,13.475,35.117,4.6l3.244,2.753L32.756,11.94l-5.314,4.291L29.8,18.374,40.722,9.183V1.223h4.722V18.06H54v4.287H41.018V14.39L29.507,23.576ZM4.428,18.367h3.54a4.97,4.97,0,0,0,2.245-.528,5.614,5.614,0,0,0,1.777-1.423,6.7,6.7,0,0,0,1.165-2.054,7.279,7.279,0,0,0-.039-4.982,6.505,6.505,0,0,0-1.236-2.036,5.716,5.716,0,0,0-1.787-1.349,4.94,4.94,0,0,0-2.123-.488H4.428Zm119,4.373c-4.868,0-9.238-3.626-9.238-11.009,0-7.123,4.369-10.75,9.238-10.75,4.119,0,7.241,2.2,7.865,6.347l-.25.259H129.92l-.25-.259c-.624-2.979-2.62-4.793-6.116-4.793-4.244,0-7.489,3.367-7.489,9.325s3.12,9.324,7.489,9.324c3.5,0,5.492-1.813,6.116-5.051l.25-.259h1.122l.249.259c-.624,4.533-3.869,6.606-7.863,6.606Zm-49.8-.388-.249-.259V1.631l.249-.259H86.106l.25.259V2.664l-.25.259H75.37l-.25.259v7.641l.25.259H85.477l.25.259v1.036l-.25.256H75.37l-.25.259v7.775l.25.259H86.106l.25.259v.907l-.25.259Zm35.572,0-.25-.259V4.736h-.374l-7.24,17.356-.25.259h-1.5l-.25-.259L92.1,4.736h-.25V22.092l-.25.259H90.474l-.25-.259V1.63l.25-.259h2l.25.259,7.74,18.263h.25L108.2,1.63l.25-.259h2l.25.259V22.092l-.374.259Zm-53.425,0V1.225h4.721V18.06h8.263v4.286Z" transform="translate(726 2144.125)"/>
  </g>
</svg>
