<svg xmlns="http://www.w3.org/2000/svg" width="199" height="80" viewBox="0 0 199 80"><defs><style>.a{fill:rgba(255,255,255,0);}.b{fill:#999;}</style></defs><g transform="translate(-692 -2116.125)"><rect class="a" width="199" height="80" transform="translate(692 2116.125)"/><g transform="translate(705.237 1553.119)"><path class="b" d="M957.624,676.22a7.49,7.49,0,0,0-1.842-3.813c-1.688-1.882-5.767-2.4-8.324-.7a.314.314,0,0,0-.255.145.242.242,0,0,0-.206.153,4.185,4.185,0,0,0-1.226,1.174h0a3.726,3.726,0,0,0-.827,1.328,8.513,8.513,0,0,0-.883,4.873h0a4.616,4.616,0,0,0,.133,1.39,6.574,6.574,0,0,0,.887,2.637c.087.155.163.317.262.463,2.3,3.419,7.125,3.315,9.836,1.474l.235-.233h0a5.835,5.835,0,0,0,2.021-1.886.8.8,0,0,0-.594-.146,12.471,12.471,0,0,1-1.7-.442c-.3-.026-.619-.283-.9-.028a4.62,4.62,0,0,1-2.089,1.045,4.086,4.086,0,0,1-4.551-2.3l-.148-.356a.4.4,0,0,0-.109-.361l-.131-.481q0-.12-.008-.24l-.043,0,.043,0a.167.167,0,0,0,.026-.107l4.8-.048h.591l1.451,0c1.058.009,2.117.007,3.175.034.314.008.4-.12.454-.4A8.453,8.453,0,0,0,957.624,676.22Zm-2.106,7.794a1.744,1.744,0,0,0-.142.681,1.741,1.741,0,0,1,.142-.681l-.237,0Zm-4.243-10.922a.2.2,0,0,1-.068.052A.2.2,0,0,0,951.276,673.092Zm-4.409,6.467h0a.494.494,0,0,0-.073.239A.5.5,0,0,1,946.867,679.559Zm-.244-4.686h0Zm-.809,3.145c.067.117.134.225.282.225C945.948,678.243,945.881,678.135,945.814,678.018Zm.385-3.385c.055.145.125.315.3.289C946.324,674.948,946.254,674.778,946.2,674.633Zm.543,9.5-.116-.118h0c-.056-.072-.105-.14-.147-.2.041.063.09.13.147.2h0l.116.118a.284.284,0,0,0,.167.306A.284.284,0,0,1,946.742,684.131Zm.126-1.682c-.018.045-.031.1-.046.144.016-.048.028-.1.046-.144h0Zm7.441-5.217c-.316-.01-.634.018-.951.029h0q-2.634-.015-5.267-.029c-.826,0-.826,0-.824-.846,0-.1,0-.2-.006-.3a.824.824,0,0,1-.172.005.824.824,0,0,0,.172-.005c.395.054.375-.264.447-.5a4.248,4.248,0,0,1,3.126-2.164.179.179,0,0,1,.066-.169.179.179,0,0,0-.066.169,7.69,7.69,0,0,1,1.736.353,3.417,3.417,0,0,1,2.139,3.044C954.746,677.152,954.61,677.241,954.308,677.232Z" transform="translate(-805.27 -76.402)"/><path class="b" d="M785.935,819.449a.394.394,0,0,0-.42.169,1.151,1.151,0,0,0-.09.585q-.128,1.928-.262,3.855c-.615-1.313-1.079-2.668-1.69-3.961-.1-.218-.18-.477-.489-.435-.29.04-.287.322-.317.519a30.806,30.806,0,0,0-.331,5.748c.007.188,0,.444.284.45s.357-.216.391-.447a18.839,18.839,0,0,0,.193-2.694c0-.135-.069-.3.117-.436.054.114.1.2.135.287a31.129,31.129,0,0,0,1.333,2.815c.135.234.3.43.613.391.278-.034.321-.258.394-.468a6.943,6.943,0,0,0,.245-1.539,31.269,31.269,0,0,0,.164-4.378C786.2,819.71,786.21,819.489,785.935,819.449Z" transform="translate(-664.357 -206.046)"/><path class="b" d="M437.366,819.449a.429.429,0,0,0-.436.255,1.123,1.123,0,0,0-.061.59c.025,1.242-.212,2.462-.235,3.81a1.851,1.851,0,0,1-.169-.237c-.5-1.26-.945-2.542-1.534-3.766-.1-.207-.162-.484-.488-.436-.307.046-.266.323-.3.522a28.8,28.8,0,0,0-.356,5.321c.01.3-.147.827.307.848.484.022.375-.53.439-.849a25.349,25.349,0,0,0,.19-2.781c.487,1.051.937,2.108,1.489,3.115.136.248.286.5.632.46s.4-.321.446-.565a28.4,28.4,0,0,0,.377-5.92C437.665,819.613,437.6,819.466,437.366,819.449Z" transform="translate(-360.611 -206.05)"/><path class="b" d="M612.188,819.44a.389.389,0,0,0-.474.272,1.615,1.615,0,0,0-.063.53,32.656,32.656,0,0,1-.279,3.693c-.175-.043-.171-.178-.214-.285-.464-1.169-.923-2.34-1.4-3.5-.092-.223-.161-.542-.513-.5-.329.044-.276.349-.323.57a24.231,24.231,0,0,0-.32,3.527,12.631,12.631,0,0,0,.01,2.162c.02.189-.011.442.272.458.264.015.3-.22.359-.41a4.248,4.248,0,0,0,.15-1.189c0-.69,0-1.38,0-2.1.255.08.243.248.293.363.419.951.816,1.912,1.326,2.819.139.248.3.5.646.431s.374-.361.436-.642a20.085,20.085,0,0,0,.349-3.281c.044-.84.017-1.683.023-2.524C612.467,819.635,612.417,819.477,612.188,819.44Z" transform="translate(-512.933 -206.037)"/><path class="b" d="M1023.551,819.708c-.006-.231.055-.536-.3-.539-.328,0-.417.252-.443.537-.066.738-.17,1.474-.193,2.213a.547.547,0,0,1-.491.615c-.855.2-.973.108-.94-.751.006-.16.022-.32.022-.48a7.662,7.662,0,0,0-.026-1.5.542.542,0,0,0-.648-.477c-.341.034-.46.238-.464.573-.007.721-.053,1.441-.064,2.162a19.631,19.631,0,0,0,.146,3.715c.03.172,0,.391.248.413a.5.5,0,0,0,.478-.3,1.917,1.917,0,0,0,.232-.979,2.865,2.865,0,0,1,.1-1.292c.216-.356.827-.107,1.222-.315.026-.014.074.012.134.024.007.113.015.23.022.348a4.994,4.994,0,0,0,.162,1.721c.078.185.151.4.4.388s.349-.208.415-.441a3.349,3.349,0,0,0,.1-1.011Q1023.612,822.02,1023.551,819.708Z" transform="translate(-871.473 -205.808)"/><path class="b" d="M871.138,819.8c-.005-.272.061-.633-.348-.635-.338,0-.443.3-.467.6q-.071.9-.125,1.8c-.057.923-.136.975-1.052,1.023-.386.02-.421-.13-.411-.44.022-.741.031-1.482.018-2.223a.55.55,0,0,0-.606-.6c-.379.01-.56.2-.548.614.025.88.007,1.762.007,2.643h.026c0,.981-.015,1.962.01,2.942.006.252-.011.636.369.644.35.007.488-.309.545-.62a9.067,9.067,0,0,0,.143-1.01c.066-.971.064-.947,1.028-1.172.371-.087.4.031.39.333a6.042,6.042,0,0,0,.191,1.726.438.438,0,0,0,.36.359c.217.031.318-.133.4-.3a1.848,1.848,0,0,0,.164-.876Q871.183,822.2,871.138,819.8Z" transform="translate(-738.678 -205.804)"/><path class="b" d="M397.511,821.736a1.784,1.784,0,0,0-2.011,1.16,5.879,5.879,0,0,0-.48,2.634c0,.28-.015.562,0,.841a1.7,1.7,0,0,0,1.615,1.7,2.2,2.2,0,0,0,2.255-1.17,6.141,6.141,0,0,0,.637-3.376C399.451,822.507,398.722,821.906,397.511,821.736Zm.45,4.971c-.132.35-.246.747-.742.74a.854.854,0,0,1-.861-.771,7.136,7.136,0,0,1,.258-3.724.81.81,0,0,1,.886-.655c.487.058.655.424.7.845.055.476.067.957.1,1.435A7.562,7.562,0,0,1,397.961,826.708Z" transform="translate(-326.835 -208.024)"/><path class="b" d="M745.915,821.754a1.787,1.787,0,0,0-1.991,1.1,6.077,6.077,0,0,0-.518,2.508c.02.42.013.843.067,1.258a1.553,1.553,0,0,0,.976,1.333,2.281,2.281,0,0,0,2.813-.97,5.877,5.877,0,0,0,.626-3.547C747.781,822.455,747.086,821.916,745.915,821.754Zm.5,4.8c-.132.4-.2.906-.794.9-.574,0-.806-.4-.891-.887a7.467,7.467,0,0,1,.242-3.5c.14-.463.428-.868,1-.752.518.105.638.566.679,1.018.032.357.007.72.007,1.081A5.83,5.83,0,0,1,746.414,826.556Z" transform="translate(-630.448 -208.039)"/><path class="b" d="M520.336,819.824a3.6,3.6,0,0,1-1.227.087c-.3-.068-.484.224-.551.522a2.947,2.947,0,0,0-.076,1.072,9.448,9.448,0,0,1,.009,2.217c0,.36-.01.721,0,1.08a10.289,10.289,0,0,0,.08,1.2c.062.406.266.736.747.688s.458-.413.44-.769c-.03-.58-.04-1.161-.079-1.74-.016-.238.006-.344.3-.365,1.556-.112,2.189-.825,2.159-2.386A1.536,1.536,0,0,0,520.336,819.824Zm.362,3.223a.755.755,0,0,1-.832.149c-.3-.079-.178-.354-.2-.556-.011-.119,0-.239,0-.411a4.327,4.327,0,0,1,.137-1.25.587.587,0,0,1,.55-.54c.322-.024.469.19.6.412A2.218,2.218,0,0,1,520.7,823.046Z" transform="translate(-434.415 -206.368)"/><path class="b" d="M934.875,824.872a34.614,34.614,0,0,0-.647-4.145c-.081-.282-.214-.473-.508-.513a.734.734,0,0,0-.793.3,2.513,2.513,0,0,0-.259.537,34.879,34.879,0,0,0-1,4.947c-.016.329-.036.568.27.612.286.041.39-.17.441-.392a7.129,7.129,0,0,0,.206-1.119c.037-.566.431-.433.775-.482.435-.062.49.2.549.516q.124.647.279,1.288c.076.314.227.587.612.5s.406-.371.361-.706C935.105,825.761,934.949,825.329,934.875,824.872Zm-1.707-.933c-.294.067-.343-.105-.288-.341.154-.653.314-1.3.472-1.957l.1,0c.089.662.192,1.323.264,1.988C933.763,824.107,933.376,823.892,933.169,823.94Z" transform="translate(-794.509 -206.707)"/><path class="b" d="M579.57,824.573a33.1,33.1,0,0,0-.61-3.839.6.6,0,0,0-.571-.512.728.728,0,0,0-.767.352,3.138,3.138,0,0,0-.292.653,45.044,45.044,0,0,0-.907,4.6c.026.35-.19.714.231.79s.437-.287.481-.59c.051-.355.128-.706.191-1.059.025-.139.042-.261.213-.318.637-.211,1.024.041,1.126.714a7.341,7.341,0,0,0,.258,1.106c.092.292.248.588.639.463s.424-.422.323-.776A13.272,13.272,0,0,1,579.57,824.573Zm-1.775-.624c-.384.027-.181-.254-.148-.414.127-.622.268-1.24.4-1.86a7.457,7.457,0,0,1,.375,1.935C578.442,824.179,578.023,823.932,577.794,823.949Z" transform="translate(-484.899 -206.721)"/><path class="b" d="M469.425,824.405c0-.423.187-.6.623-.6a6.61,6.61,0,0,0,1.133-.11.417.417,0,0,0,.4-.389c0-.237-.234-.25-.4-.277a11.041,11.041,0,0,0-1.908-.2.608.608,0,0,0-.565.33,5.26,5.26,0,0,0-.676,2.751,4.971,4.971,0,0,0,.259,1.721,2.3,2.3,0,0,0,2.818,1.222c.27-.1.544-.3.426-.615-.14-.376-.4-.157-.635-.037a.79.79,0,0,1-1.243-.469,3.432,3.432,0,0,1-.229-.866c-.069-.5-.027-.858.63-.784a2,2,0,0,0,.644-.127c.139-.034.287-.093.294-.256.008-.186-.169-.214-.3-.231a6.893,6.893,0,0,0-.954-.075c-.3,0-.39-.119-.352-.4A4.48,4.48,0,0,0,469.425,824.405Z" transform="translate(-390.463 -209.004)"/><path class="b" d="M903.941,828.16a.765.765,0,0,1-1.039-.07,1.651,1.651,0,0,1-.362-.873c-.07-.351-.25-.741-.074-1.047.128-.222.536-.022.79-.14s.743.028.711-.371c-.028-.346-.478-.245-.76-.291-.253-.041-.632.114-.738-.088-.2-.376-.018-.811.064-1.219.055-.273.256-.258.457-.275.4-.032.8-.058,1.192-.117.223-.034.443-.151.428-.419-.013-.238-.254-.23-.42-.254a16.552,16.552,0,0,0-1.724-.2.756.756,0,0,0-.808.457,5.691,5.691,0,0,0-.482,3.841c.3,1.264.966,1.778,2.423,1.788a2.2,2.2,0,0,0,.591-.088c.24-.087.512-.275.392-.579C904.442,827.86,904.18,828.017,903.941,828.16Z" transform="translate(-767.812 -208.967)"/><path class="b" d="M818.471,823.777a4.895,4.895,0,0,0,1.13-.115c.265-.059.506-.249.264-.56a5.322,5.322,0,0,0-2.577-.217,2.549,2.549,0,0,0-.507.872,7.629,7.629,0,0,0-.355,2.3c.029.264.046.707.129,1.136a2.291,2.291,0,0,0,2.986,1.628c.268-.112.523-.315.366-.645s-.392-.1-.6,0c-.611.3-.953.155-1.252-.452a5.534,5.534,0,0,1-.268-1.344c-.059-.263.117-.276.318-.3.337-.032.671-.09,1-.153.142-.027.272-.114.256-.282-.013-.14-.145-.187-.266-.2a6.587,6.587,0,0,0-.953-.075c-.337.012-.421-.13-.37-.427a2.785,2.785,0,0,0,.081-.593C817.836,823.9,818.05,823.77,818.471,823.777Z" transform="translate(-694.082 -208.972)"/><path class="b" d="M646.265,828.284a.8.8,0,0,1-1.214-.458,5.618,5.618,0,0,1-.26-1.227c-.071-.292-.007-.439.346-.436a5.17,5.17,0,0,0,.944-.142c.146-.026.278-.1.274-.269s-.169-.216-.3-.231a8.555,8.555,0,0,0-.955-.066c-.256,0-.375-.082-.335-.348a4.05,4.05,0,0,0,.084-.654c-.007-.476.238-.6.671-.593a6.374,6.374,0,0,0,1.072-.1.4.4,0,0,0,.357-.353c.014-.1-.011-.22-.121-.245a7.1,7.1,0,0,0-2.492-.224c-.082.01-.147.176-.215.273a5.2,5.2,0,0,0-.7,2.694,6.984,6.984,0,0,0,.115,1.245,2.272,2.272,0,0,0,2.938,1.778c.309-.1.589-.3.433-.656C646.738,827.889,646.482,828.183,646.265,828.284Z" transform="translate(-543.313 -209.059)"/><path class="b" d="M60.993,602.308l-.06-.344a.438.438,0,0,0-.07-.374c-.107-.269.22-.571-.065-.826l-.443-.007h0l.443.008a5.131,5.131,0,0,0-.527-2.285,9.751,9.751,0,0,0-1.115-3.38c-.6-1.235-1.333-2.406-2.02-3.6a16.353,16.353,0,0,0-1.95-2.172,13.665,13.665,0,0,0-1.419-1.4,25.07,25.07,0,0,0-3.016-1.972c-.137-.331-.471-.217-.712-.313-.224-.357-.663-.329-.967-.543q-.019.037-.04.07c.013-.022.027-.045.04-.069a2.36,2.36,0,0,0-1.265-.678c-.726-.253-1.478-.434-2.219-.645a.61.61,0,0,0-.5-.105,4.173,4.173,0,0,1-.951-.146,5.782,5.782,0,0,0-1.821-.192c-.114-.12-.229-.2-.35-.007l-.221-.052c-.086-.163-.188-.341-.4-.212a2.007,2.007,0,0,1-1.073.17c-.066-.091-.066-.344-.263-.156a.655.655,0,0,1-.82.022.543.543,0,0,0-.652.047,1.575,1.575,0,0,1-.549.19c-.7.2-1.465.023-2.121.411h0a2.627,2.627,0,0,0-.875.119c-1.562.826-3.453.938-4.806,2.212a4.308,4.308,0,0,0-2.173,1.422,9.332,9.332,0,0,0-2.149,1.846c-.635.641-1.162,1.372-1.747,2.055-.4.465-.9.848-.93,1.529-.181.133-.5.146-.437.494l-.074.125a.057.057,0,0,0-.054.068c-.334.292-.342.749-.559,1.1-.28.583-.579,1.158-.83,1.753a1.515,1.515,0,0,0-.205.911l0,0a5.042,5.042,0,0,0-.609,2.063l-.032.242-.031.113-.016.365-.118.24c-.4.465.182,1.033-.147,1.527a.37.37,0,0,0,.052.557,4.891,4.891,0,0,1,1.684-2.02c.139-.094.1-.242.075-.382a3.9,3.9,0,0,1,.517-2.407,11.813,11.813,0,0,1,2.021-2.558l.145-.095s0,.006,0,.01l.139-.1h.014l.208-.177c-.029,0-.059,0-.086,0,.028,0,.057,0,.086,0l.206-.136a26.4,26.4,0,0,1,5.525-2.648,9.822,9.822,0,0,1,2.273-.324.5.5,0,0,0,0-.063.5.5,0,0,1,0,.063l.106.1c-.323.5-.879.818-1.128,1.463a12.624,12.624,0,0,1,3.557-.641l.359.028.361.114c-.078.391-.582.438-.7.859a9.151,9.151,0,0,1,1.152.01,4.443,4.443,0,0,0,1.118.072l1.738.513a.67.67,0,0,0,.425.2A.067.067,0,0,0,40,594.4a.308.308,0,0,0,.266.142h0l.5.332.14.105a.589.589,0,0,0,.324.272h0l.457.467c.095.651-.557.293-.78.616l.895,1.178.372.608a11.45,11.45,0,0,1,.592,2,2.29,2.29,0,0,0,.609,1.382.245.245,0,0,0,.149.226.382.382,0,0,0,.247.254,1.863,1.863,0,0,0,1.256.627c.535.151,1.076.284,1.6.458.593.2.714.543.417,1.092-.075.139-.157.276-.235.413l-.147.15c-.225.127-.3.308-.144.525a1.558,1.558,0,0,0,.606.6l.11.082c.036,0,.073,0,.11,0-.037,0-.074,0-.11,0,.519.466.522.619,0,1.069-.209.179-.441.332-.654.507-.092.076-.316.089-.217.281.09.175.263.131.417.067.851.207,1.017.511.719,1.315-.329.648.169,1.084.42,1.572a1.458,1.458,0,0,1-.549,2.145c-.2.126-.407.239-.611.358a3.936,3.936,0,0,0-.88.34,7.626,7.626,0,0,0-2.269.8l-.048.032a2.678,2.678,0,0,0-1.131,1.207,20.926,20.926,0,0,0-1.331,3.331,2.357,2.357,0,0,0-.215,1.286.357.357,0,0,0,.157.414.065.065,0,0,0,.047.044.124.124,0,0,0,.07.068.063.063,0,0,0,.045.043.891.891,0,0,0,.531.245,26.046,26.046,0,0,1,4.848,1.655l.031.02a.625.625,0,0,1,.163-.045.625.625,0,0,0-.163.045l.314.219a.628.628,0,0,0,.01-.1.628.628,0,0,1-.01.1.063.063,0,0,0,.06.038l.15.023.366-.113a6.882,6.882,0,0,0,1.557-.625,2.008,2.008,0,0,0,1.573-.926,2.747,2.747,0,0,0,1.2-.491c.7-.319,1.072-1.064,1.79-1.355a34.479,34.479,0,0,0,3.858-4.182h0a21.717,21.717,0,0,0,1.586-2.883,22.361,22.361,0,0,0,1.3-3.388,3.847,3.847,0,0,0,.247-1.674c.48-.6.189-1.319.318-1.974a1.083,1.083,0,0,0-.086-.912c.2-.215.1-.478.116-.723A2.715,2.715,0,0,0,60.993,602.308ZM29.346,588.246a.887.887,0,0,0-.312-.168.889.889,0,0,1,.312.168.784.784,0,0,1,.431.1A.786.786,0,0,0,29.346,588.246Zm1.01,3.011a.73.73,0,0,1,.038-.077h0A.719.719,0,0,0,30.356,591.257Zm5.465-5.266,0,0-.009,0-.005,0a.125.125,0,0,0-.034-.009c-.054-.006-.063.006-.058.023-.534-.015-.723.368-.918.69.207-.341.406-.751.922-.723.459-.252.417-.846.773-1.211C36.137,585.113,36.183,585.7,35.821,585.991Zm1.215,2.254a.44.44,0,0,0-.162.228.439.439,0,0,1,.162-.228.541.541,0,0,1,.028-.162A.536.536,0,0,0,37.036,588.244Zm.308,2.147h0c.074,0,.121-.042.126-.095C37.465,590.349,37.418,590.387,37.344,590.391Zm5.715,1.7c.072.052.062.1.037.141.025-.044.035-.09-.037-.141-.008-.147,0-.3-.163-.346C43.057,591.786,43.05,591.943,43.059,592.09Zm-.544-.95A.8.8,0,0,0,42.57,591h0A.8.8,0,0,1,42.515,591.139Zm.217,1.355a1.436,1.436,0,0,1,.072-.158.883.883,0,0,1-.092,0,.883.883,0,0,0,.092,0A1.436,1.436,0,0,0,42.733,592.494Zm.314,1.641a1.982,1.982,0,0,1-.238-.251,1.99,1.99,0,0,0,.238.251.18.18,0,0,0,.1-.1A.18.18,0,0,1,43.047,594.135Zm.117.968h0a1.036,1.036,0,0,0,.025.245A1.036,1.036,0,0,1,43.164,595.1Zm-.124-2.769h0a1.107,1.107,0,0,1,.354.477A1.106,1.106,0,0,0,43.04,592.334Zm1.208,9.623Zm.479-16.236c-.022,0-.043,0-.064-.005.021,0,.043,0,.064.005,0-.04,0-.08,0-.119-.171-.122-.324-.282-.492-.411.168.129.321.288.493.411C44.728,585.641,44.727,585.681,44.726,585.721Zm-1.56,31.991,0-.239,0,.239a.7.7,0,0,1,.188-.006A.7.7,0,0,0,43.166,617.711Zm3.247-3.962a1.317,1.317,0,0,0,.032.375,1.318,1.318,0,0,1-.032-.375l.24-.005Zm6.97-25.143h0a1.357,1.357,0,0,0-.056.283A1.357,1.357,0,0,1,53.384,588.606Zm.031.642a.4.4,0,0,1-.059-.11A.4.4,0,0,0,53.415,589.248Zm-5.534,5.224a2.009,2.009,0,0,0,.6.27A2.01,2.01,0,0,1,47.88,594.472Zm1.776,10.491a.7.7,0,0,0-.112,0,.7.7,0,0,1,.112,0,.333.333,0,0,1,.028-.033A.333.333,0,0,0,49.656,604.963Zm.242-1.443h0a.385.385,0,0,1,.105-.341A.385.385,0,0,0,49.9,603.52Zm.242-.72h0l.161-.055Zm.717,6.131a.985.985,0,0,0,.027.12.985.985,0,0,1-.027-.12.218.218,0,0,1,.135-.224A.218.218,0,0,0,50.857,608.93Zm.358,10.358c-.029-.05-.123-.007-.174-.008.05,0,.141-.04.172-.015-.011-.265.02-.565-.188-.52.223-.05.171.289.193.523l0,0C51.213,619.273,51.214,619.281,51.214,619.289Zm.009.045a.1.1,0,0,0,0-.022.063.063,0,0,0,0-.036,1.006,1.006,0,0,1,.44.776C51.672,619.806,51.43,619.365,51.224,619.334Zm1.271-3.218a.682.682,0,0,0-.077-.038.69.69,0,0,1,.077.038Zm.044-4.057a2.176,2.176,0,0,0-.464-.123,2.179,2.179,0,0,1,.464.123.906.906,0,0,0,.012.188A.915.915,0,0,1,52.538,612.059Zm.243-1.083h0Zm2.183-15.238c-.266-.084-.536-.153-.805-.227-.854-.234-.844-.23-1.18.61-.252.628-.533,1.244-.8,1.865a.261.261,0,0,1,.061.052.261.261,0,0,0-.061-.052c-.083.074-.165.206-.25.208-.107,0-.09-.148-.089-.242a3.1,3.1,0,0,0-.139-.927,9.227,9.227,0,0,0-.125-1.06c-.265-1.143-.011-.953-1.128-.988-.3-.009-.6-.013-.893-.019-.283-.2-.672.079-.936-.208h0a15.292,15.292,0,0,0,1.988-1.277.545.545,0,0,0,.211-.669c-.207-.835-.7-1.551-.948-2.365l.046-.046a8.2,8.2,0,0,1,2.015,1.273c.334.281.554.219.795-.086.258-.327.528-.644.829-1.011a6.566,6.566,0,0,1,.2,2.192,1.092,1.092,0,0,0,.279.811,10.88,10.88,0,0,1,1.738,2.325C55.441,596,55.213,595.817,54.964,595.738Zm1.43,7.307a1.027,1.027,0,0,1-.4.4,1.027,1.027,0,0,0,.4-.4l.1,0Zm.23,0h0a.923.923,0,0,1,.07-.226A.923.923,0,0,0,56.623,603.05Zm1.926,6c-.032.005-.063.012-.093.02.03-.008.061-.014.093-.02a.175.175,0,0,0,0-.031A.175.175,0,0,1,58.549,609.053Zm.917-7.544-.04-.1.04.1Zm.4-2.679-.131.022.131-.022Z" transform="translate(0 0)"/><path class="b" d="M985.312,820.294a7.408,7.408,0,0,0-3.774.766c-.14.065-.236.158-.2.324a.273.273,0,0,0,.308.226,7.472,7.472,0,0,0,.956-.076c.45-.082.561.089.5.512a19.072,19.072,0,0,0-.226,2.694c.032.5.059,1,.1,1.5.026.33.075.68.511.677s.455-.367.49-.69c.13-1.218.06-2.441.089-3.661.029-1.243.013-1.24,1.258-1.466.228-.041.534-.037.538-.361S985.578,820.315,985.312,820.294Z" transform="translate(-837.79 -206.77)"/><path class="b" d="M677.872,820.3a7.437,7.437,0,0,0-3.714.755c-.135.063-.247.141-.214.314a.29.29,0,0,0,.346.253,9.112,9.112,0,0,0,.954-.087c.369-.068.514.016.442.419a13.942,13.942,0,0,0-.138,2.751c0,.342-.008.923,0,1.5.007.362.086.712.544.712.423,0,.418-.349.451-.649.138-1.236.114-2.478.131-3.718s.01-1.229,1.21-1.444c.243-.044.585-.035.567-.4C678.438,820.387,678.128,820.315,677.872,820.3Z" transform="translate(-569.909 -206.775)"/><path class="b" d="M966.184,826.2c-.358-.028-.717-.066-1.075-.061-.333,0-.449-.112-.437-.455.026-.718.008-1.438.008-2.157a12.211,12.211,0,0,0,.046-2.629.6.6,0,0,0-.552-.546c-.37-.025-.365.3-.413.545a25.349,25.349,0,0,0-.2,5.2.782.782,0,0,0,.679.809,7.212,7.212,0,0,0,1.968-.023c.18-.03.372-.091.372-.319C966.58,826.321,966.405,826.221,966.184,826.2Z" transform="translate(-822.274 -206.84)"/><path class="b" d="M552.8,826.229a8.216,8.216,0,0,0-.958-.059c-.442.013-.639-.105-.594-.612.059-.656.014-1.321.014-1.982h.027c.025-.52.062-1.04.071-1.561a9.207,9.207,0,0,0-.047-1.078.573.573,0,0,0-.594-.562c-.322,0-.326.292-.366.529a25.967,25.967,0,0,0-.2,5.153.794.794,0,0,0,.622.853,6.519,6.519,0,0,0,2.031-.01c.182-.029.36-.1.349-.338C553.152,826.34,553,826.246,552.8,826.229Z" transform="translate(-462.008 -206.859)"/><path class="b" d="M729.337,679.938a6.733,6.733,0,0,0-.049-3.32,3.085,3.085,0,0,0-.466-1.448,5.669,5.669,0,0,0-1.278-2.126,6.445,6.445,0,0,0-3.113-2.1,3.342,3.342,0,0,0-1.635-.368,4.764,4.764,0,0,0-1.951,0l-.1.023a6.136,6.136,0,0,0-3.007,1.3,1.14,1.14,0,0,0,.233.136,1.131,1.131,0,0,1-.233-.136,5.116,5.116,0,0,0-1.69,1.7,2.515,2.515,0,0,0-.606.962,7.566,7.566,0,0,0-.936,4.461.811.811,0,0,0,.065.488l.177.952a7.481,7.481,0,0,0,1.441,2.994,7.161,7.161,0,0,0,8.293,2.425,4.613,4.613,0,0,0,1.7-.908h0a5.471,5.471,0,0,0,1.659-1.621A6.785,6.785,0,0,0,729.337,679.938Zm-5.645,4.112h0l.073-.013Zm2.818-4.789a7.447,7.447,0,0,1-.712,1.915.338.338,0,0,0,.153.129.338.338,0,0,1-.153-.129,7.586,7.586,0,0,1-1.015,1.236l-.017.005h0a4.594,4.594,0,0,1-3.884.912h0a5.3,5.3,0,0,1-3.1-2.937l-.151.2a.689.689,0,0,0,.047.315.689.689,0,0,1-.047-.315l.151-.2a7.53,7.53,0,0,1-.381-1.731c-.144,0-.293.007-.436,0,.143.007.292,0,.436,0a5.747,5.747,0,0,1,1.686-4.165h0a5.1,5.1,0,0,1,2.395-1.1.733.733,0,0,0-.021-.118.733.733,0,0,1,.021.118,4.488,4.488,0,0,1,3.595,1.3,6.262,6.262,0,0,1,1.155,1.818.5.5,0,0,1,.173-.079.5.5,0,0,0-.173.079A7.2,7.2,0,0,1,726.51,679.261Zm.3-3.814.043-.1h0Zm.075,6.585h0a.419.419,0,0,0,.068-.017A.419.419,0,0,1,726.883,682.032Z" transform="translate(-605.239 -76.226)"/><path class="b" d="M393.808,682.431l-.011.608-.017.721a.505.505,0,0,0,.055-.032.505.505,0,0,1-.055.032c-.046.716-.07,1.435-.147,2.147-.036.331.1.392.374.452a14.168,14.168,0,0,0,1.954.236,12.091,12.091,0,0,0,6.455-1.047l.524-.28.022-.006a6.576,6.576,0,0,0,2.47-2.209,7.46,7.46,0,0,0,1.364-4.458.747.747,0,0,0,0-.487q0-.176.005-.353a.662.662,0,0,0-.042-.492.094.094,0,0,0-.014-.111.873.873,0,0,0-.092-.493,2.47,2.47,0,0,0-.272-1.074,2.147,2.147,0,0,0-.475-1.089,2.864,2.864,0,0,0-.74-1.071,1.136,1.136,0,0,0-.483-.479,5.62,5.62,0,0,0-.534-.47c-2.316-1.582-4.924-1.8-7.615-1.616l-.273.012-.129.008c-.729.062-1.458.126-2.187.186-.3.024-.381.149-.338.461.087.627.117,1.262.171,1.893l.024.963q0,.236,0,.472,0,.545.007,1.091,0,.12,0,.241,0,.3,0,.6v.967q0,.3,0,.6l0,.366q0,.189,0,.377h0q0,.092,0,.184a.9.9,0,0,0,.074.052.9.9,0,0,1-.074-.052q0,1.044,0,2.088,0,.3,0,.6l-.005.468m.2.61h0Zm2.88,1.439,6.854-8.054,0-.119-.477,0,.03.122a5.646,5.646,0,0,1-.794,5.773h0a.07.07,0,0,0-.057.056,7.165,7.165,0,0,1-5.3,1.541c.051.068.16.1.2.172-.04-.071-.149-.1-.2-.172l-.126-.033-.075-.357a.368.368,0,0,0-.071.015.37.37,0,0,1,.071-.015,1.482,1.482,0,0,0,0-.731,2.085,2.085,0,0,0,0-.836h0q0-.123,0-.247,0-.236,0-.473l-.1-.088.1.088q0-.065,0-.13,0-.117,0-.234a.848.848,0,0,1-.152-.054.848.848,0,0,0,.152.054.766.766,0,0,0,0-.48q0-.124,0-.248,0-.179-.007-.359l.014-.479q0-.842,0-1.685l-.008-.357h0q0-.116,0-.232l0-.37h0c0-.041,0-.083,0-.124a1.117,1.117,0,0,0-.005-.6h0a1.974,1.974,0,0,0,0-.845,4.448,4.448,0,0,0,.006-1.2l.084-.112a9.827,9.827,0,0,1,3.212.257,4.923,4.923,0,0,1,3.027,2.379l.477,0m.842,2.164" transform="translate(-325.601 -76.514)"/><path class="b" d="M180.658,722.978c-.219-.387-.639-.809-.147-1.37a2.3,2.3,0,0,0-1.6,1.9c-.078.292-.069.439.327.363a4.412,4.412,0,0,0,1.335-.506C180.735,723.275,180.8,723.225,180.658,722.978Z" transform="translate(-138.475 -120.786)"/><path class="b" d="M30.605,784.211c-.01.205-.021.4-.028.6-.009.273-.189.188-.34.167a1.538,1.538,0,0,0-.54-.415l-.017-.012-.4-.3h0l-.187-.169-.015-.011-.567-.469a.075.075,0,0,0-.05-.035h0a.111.111,0,0,0-.054-.053.059.059,0,0,0-.055-.056l-.122-.081v0a4.677,4.677,0,0,0-.875-.8l-.241-.237h0l-.243-.239h0l-.246-.237a.434.434,0,0,0-.234-.249.416.416,0,0,0-.236-.251l-1.554-1.792-.055-.146a.059.059,0,0,0-.031-.064,13.824,13.824,0,0,1-1.493-2.72c-.051-.144-.105-.375-.3-.279-.164.081-.057.265.025.413a8.532,8.532,0,0,1,.679,2.207A3.971,3.971,0,0,0,24,780.175c-.027.631.546,1.005.672,1.571-.038.37.3.361.5.487l.042.232c.028.568.466.94.687,1.417a11.837,11.837,0,0,0,2.337,2.763,3.381,3.381,0,0,0,1.641,1.243.048.048,0,0,0,.059.042l.013.005c.675.444.7.45,1.009-.292.232-.55.422-1.118.615-1.683A1.276,1.276,0,0,0,30.605,784.211Z" transform="translate(-2.326 -168.483)"/><path class="b" d="M169.9,709.8a.4.4,0,0,0,.287-.168l.04-.018.035-.019a1.812,1.812,0,0,0,.351-.026c.138-.037.292.277.383.014a.587.587,0,0,0-.1-.61.434.434,0,0,0-.632-.038.506.506,0,0,0-.408.184l-.005,0a3.774,3.774,0,0,0-1.833,3.268A8.965,8.965,0,0,1,169.9,709.8Z" transform="translate(-129.011 -109.636)"/><path class="b" d="M717.7,864.244c-.342.03-.664.181-.678.548a.44.44,0,0,0,.545.42.851.851,0,0,0,.7-.635A.481.481,0,0,0,717.7,864.244Z" transform="translate(-607.457 -245.085)"/><path class="b" d="M503.149,687.974q.007.11.014.221a.2.2,0,0,0,0,.251l.023.513a.062.062,0,0,0,.034.091,2.329,2.329,0,0,0,.823.053.685.685,0,0,0,.556-.015h0l.371-.022.389.035a.74.74,0,0,0,.554,0c.578.108.719-.149.6-.679-.078-.345-.1-.7-.142-1.057l-.13-.006.13.006-.205-1.33a.509.509,0,0,0-.092-.365,2.974,2.974,0,0,0-.206-1.093l-.066-.224a.558.558,0,0,1-.065-.031.558.558,0,0,0,.065.031,2.317,2.317,0,0,0-.242-.963,1.4,1.4,0,0,0-.236-.837.831.831,0,0,0-.176-.615,10.226,10.226,0,0,0-.773-2.154.193.193,0,0,1-.137-.01.193.193,0,0,0,.137.01,15.855,15.855,0,0,0-2.165-3.967,5,5,0,0,0-.953-1.208.579.579,0,0,0-.6-.363q-1.214.028-2.429,0a.594.594,0,0,0-.613.356.4.4,0,0,1,.256.132.4.4,0,0,0-.256-.132l-.1.125a1.312,1.312,0,0,0-.472.6,3.251,3.251,0,0,0-.755,1.019l-.207.337a21.437,21.437,0,0,0-2.907,7.061.855.855,0,0,0-.129.6,1.854,1.854,0,0,0-.209.857h0q-.006.117-.011.234a7.05,7.05,0,0,0-.37,2.05c-.044.055-.063.11,0,.163a1.791,1.791,0,0,0-.106.917c-.193.393-.126.579.367.558.738-.031,1.479-.029,2.218,0,.388.015.56-.066.594-.5.06-.775.2-1.543.3-2.315.031-.235.081-.435.368-.452h.123a25.912,25.912,0,0,0,2.758.006h0l.35,0a7.183,7.183,0,0,0,1.459,0l.049.02.051-.017h.749l.224-.07-.224.07h.48c.453-.027.681.16.67.641a2.907,2.907,0,0,0,.123.63l.069.469A.445.445,0,0,0,503.149,687.974Zm3.035-.615h0a.589.589,0,0,1-.067.082A.575.575,0,0,0,506.184,687.359Zm-.6,1.173h0a.565.565,0,0,0-.016-.119A.564.564,0,0,1,505.586,688.531Zm-2.049-9.468a.175.175,0,0,1,.07.06.175.175,0,0,0-.07-.06.126.126,0,0,1-.047.057A.126.126,0,0,0,503.537,679.063Zm0,3.134a3.587,3.587,0,0,1,.068.408,3.581,3.581,0,0,0-.068-.408.276.276,0,0,0-.134-.251A.276.276,0,0,1,503.536,682.2Zm-8.262,2.474h0a.694.694,0,0,0,.038-.077A.714.714,0,0,1,495.274,684.671Zm6.338-6.335a2.134,2.134,0,0,0,.05.374,2.134,2.134,0,0,1-.05-.374Zm-.238-.115a.215.215,0,0,0,.046.058.215.215,0,0,1-.046-.058c0-.011-.007-.023-.011-.035C501.368,678.2,501.371,678.21,501.374,678.221Zm-.034-.792h0l-.043.1Zm-.207,1.754a.3.3,0,0,1,.025.056.3.3,0,0,0-.025-.056.4.4,0,0,0-.07.012A.4.4,0,0,1,501.132,679.183Zm-2.529-2.648q0,.094,0,.189,0-.094,0-.189a.212.212,0,0,1-.028-.019A.22.22,0,0,0,498.6,676.535Zm-.036-.025a.2.2,0,0,1-.062-.1A.2.2,0,0,0,498.568,676.51Zm.039.381q0-.055,0-.11,0,.055,0,.111a1.633,1.633,0,0,0-.248.479A1.634,1.634,0,0,1,498.607,676.891Zm-.362-1.678Zm-1.874,9.895h0a.662.662,0,0,0,.077.038A.673.673,0,0,1,496.372,685.108Zm5.694-1.968-4.779.017h-.24l-.461-.049a23.356,23.356,0,0,1,2.015-4.959c.092-.171.259-.312.252-.532a.725.725,0,0,0,.276-.446c.149-.206.286-.179.413.021h0l.869,1.511a1.033,1.033,0,0,0,.106-.045,1.022,1.022,0,0,1-.106.045.252.252,0,0,0,.122.24,1.637,1.637,0,0,0,.337.67.93.93,0,0,0,.247.539,9.791,9.791,0,0,0,.682,1.76l.266,1.229c.02.015.04.032.06.049C502.105,683.171,502.085,683.154,502.066,683.139Zm.87-4.076c-.133-.16-.285-.31-.41-.471.125.162.277.311.41.471a.446.446,0,0,1,.013.128A.446.446,0,0,0,502.936,679.064Z" transform="translate(-411.576 -79.51)"/><path class="b" d="M845.983,685.192l.19.36a21.73,21.73,0,0,1,1.189,3.056.438.438,0,0,0,.516.368c.7-.02,1.4-.017,2.1,0,.288.006.437-.047.433-.387-.023-1.9-.025-3.8-.035-5.7q0-.242,0-.483,0-3.487,0-6.974c.012-.276.009-.554.039-.828.041-.374-.068-.535-.482-.505-.611.044-1.226.027-1.84.036l-.48,0c-.419-.111-.526.072-.426.451h0v.361q0,.36,0,.719a4.694,4.694,0,0,0,0,1.2q0,.726,0,1.453,0,.128,0,.257a.076.076,0,0,0,.008.1q0,.662-.009,1.324,0,.18,0,.36t0,.369c-.106.143.117.4-.172.48a1.991,1.991,0,0,0-.473-.729l-.116-.137h.006a7.268,7.268,0,0,0-1.1-1.405,2.321,2.321,0,0,0-.576-.659,1.442,1.442,0,0,0-.471-.5,22.012,22.012,0,0,0-3.874-3.548c-.32-.256-.692-.108-1.035-.112-1.9-.026-1.9-.017-1.733,1.914a20.876,20.876,0,0,0,0,2.526c-.053,1.763-.047,3.526,0,5.289-.012,1.6-.02,3.2-.04,4.8,0,.281.132.327.37.324.82-.009,1.641-.013,2.461,0,.289.005.38-.1.377-.382-.018-1.9-.023-3.8-.032-5.7q0-.962,0-1.924l-.31.094.31-.094q0-.722,0-1.443l.063-.62c.27.036.358.3.569.375a29.617,29.617,0,0,1,3.919,4.707,1.54,1.54,0,0,0,.358.608h0A1.733,1.733,0,0,0,845.983,685.192Zm1.22-2.747-.046-.03.046.03Zm.27-2.766-.224.331a.8.8,0,0,0,.011.118h0a.82.82,0,0,1-.011-.118Zm-.219,1.65h0a.281.281,0,0,1-.134.235A.281.281,0,0,0,847.255,681.329Zm-.25.351h0c.014.225-.161.381-.276.559C846.844,682.061,847.018,681.905,847,681.68Zm-.478-.474a.246.246,0,0,1,.084.006.246.246,0,0,0-.084-.006.127.127,0,0,0,0,.024A.127.127,0,0,1,846.527,681.206Z" transform="translate(-712.502 -79.369)"/><path class="b" d="M608.385,688.224q0,.126,0,.252c-.044.164.011.216.17.152l.471-.005c.008-.031.016-.062.024-.093-.008.031-.017.062-.024.093a1.165,1.165,0,0,0,.593,0,13.792,13.792,0,0,0,1.481.043c.438.044.593-.116.468-.539.011-.014.034-.029.032-.041a.571.571,0,0,0-.03-.1q0-.234,0-.468a.2.2,0,0,0,0-.25v-.83c.063-2.047.07-4.094,0-6.141l-.978,0,.012.014-.012-.014.978,0q0-.119-.006-.238h0c0-.039,0-.077,0-.116l-.138-.126.138.126a.621.621,0,0,0,0-.493q0-.239,0-.478l-.01-.233-.247-.008c-.048-.158-.137-.19-.239-.183.1-.006.191.026.239.183l.247.008c.146-.285.255-.046.346.037.45.414.89.839,1.334,1.26l.12.123.468.521h0l1.838,2.384,1.639,2.894h0l.4.957.039-.009-.039.009a.727.727,0,0,0,.208.481c-.01.329.217.594.253.907.032.279.178.36.439.354.691-.019,1.382-.022,2.073-.031.228.039.525.194.449-.271q0-.3,0-.6,0-.243,0-.487a.907.907,0,0,0-.1.062.907.907,0,0,1,.1-.062q0-.418.005-.835h0v-5.052q0-.12,0-.241v-.6c0-.081,0-.162,0-.243q0-.363-.005-.726,0-.116,0-.232,0-.907,0-1.813a.082.082,0,0,0,0-.105q0-.559-.005-1.117a.067.067,0,0,0,0-.068l-.192.093h0l.192-.093q0-.131,0-.262t0-.25q0-.177,0-.354c.125-1.568.125-1.584-1.436-1.558-.58.01-1.383-.271-1.682.164-.277.4-.051,1.155-.046,1.753a1.032,1.032,0,0,0,.339-.009,1.032,1.032,0,0,1-.339.009q0,.181,0,.361h0q0,.242,0,.483h0q0,.606-.006,1.213,0,.174,0,.348t0,.362a.5.5,0,0,1,.056.011.5.5,0,0,0-.056-.011q0,.12,0,.241,0,.363,0,.726h0q0,.173,0,.347,0,.126,0,.252l-.025.875-2.031-2.525a13.694,13.694,0,0,0-2.08-2.2,12.831,12.831,0,0,0-2.156-1.916l-.221-.179a.827.827,0,0,0-.66-.319c-.627.022-1.255.019-1.882.027-.364-.061-.672-.059-.51.462q0,.118,0,.237a.211.211,0,0,0,.008.245l-.023.04.023.04a1.277,1.277,0,0,0,0,.757q0,.064,0,.127a.364.364,0,0,0-.012.353.227.227,0,0,0,.013.248,1.15,1.15,0,0,0-.01.715l.046.024-.046-.024-.007.243a.4.4,0,0,0,.1-.058.4.4,0,0,1-.1.058,5.626,5.626,0,0,0,0,1.439h0l0,.247a4.45,4.45,0,0,0,0,1.32q-.11,2.492,0,4.984h0a1.922,1.922,0,0,0,0,.806.319.319,0,0,0,.024.348l.152-.124h0l-.152.124a.357.357,0,0,0-.022.37.077.077,0,0,0,0,.11,4.025,4.025,0,0,0,0,1.218l-.028.044Zm12.685-8.874a.188.188,0,0,0-.075.036A.188.188,0,0,1,621.07,679.35Zm-.416.537a.118.118,0,0,1-.055-.016A.118.118,0,0,0,620.654,679.887Zm-.619-3.486a.176.176,0,0,1-.032.113.174.174,0,0,0,.032-.113.452.452,0,0,0-.322-.243A.453.453,0,0,1,620.035,676.4Zm-.623,5.252h0l-.051-.029Zm-.205-5.449a.147.147,0,0,0-.076-.076A.147.147,0,0,1,619.206,676.2Zm-.2,6.387c.109,0,.264.088.356.07-.092.017-.247-.067-.356-.07q0,.179,0,.358h0q0-.179,0-.358Zm-.54-.653h0c0,.03-.005.06-.008.09Zm-.181,4.738.114.115-.114-.115,0,0Zm-.605-.964a1.334,1.334,0,0,0-.005-.217,1.327,1.327,0,0,1,.005.217.257.257,0,0,0-.228.114A.257.257,0,0,1,617.675,685.712Zm-.234-2.283h0a1.4,1.4,0,0,1-.51.163A1.4,1.4,0,0,0,617.441,683.429Zm-.964-.119a.824.824,0,0,0,.089.118.824.824,0,0,1-.089-.118.183.183,0,0,1-.03.044A.183.183,0,0,0,616.477,683.31Zm-3.125-4.09h0Zm-.362-2.047a.375.375,0,0,1,.13.227.375.375,0,0,0-.13-.227q0-.118,0-.237Q612.989,677.055,612.99,677.173Zm0,1.8a.439.439,0,0,1,.239.087.44.44,0,0,0-.239-.087.316.316,0,0,1-.074-.21A.316.316,0,0,0,612.99,678.97Zm-.722-1.915c0,.04,0,.08,0,.12,0-.04,0-.08,0-.12a.176.176,0,0,1-.028.006Zm-.3-2.2h0c-.008.015-.019.03-.029.045C611.948,674.89,611.959,674.875,611.968,674.86Zm-.933,3.327h0l-.044.1Zm-.445.31q0,.119,0,.239c-.015.1-.049.215-.071.322.023-.107.056-.217.071-.322q0-.12,0-.239l-.243,0h0l.243,0Zm-.243-.964a.717.717,0,0,1,.039-.089.717.717,0,0,0-.039.089c-.117-.014-.236-.021-.352-.039C610.109,677.513,610.228,677.52,610.345,677.534Zm-.6,2.882q.059,0,.119.005-.059,0-.119-.005c0-.05-.005-.1,0-.148C609.742,680.317,609.743,680.366,609.747,680.416Zm-.1.106a.364.364,0,0,0-.025.141l.118.119a.538.538,0,0,0,.076.357.538.538,0,0,1-.076-.357l-.118-.119h0A.364.364,0,0,1,609.65,680.522Zm-.143,4.708h0l0,0Zm-.242-6.38a.4.4,0,0,1,.121.327.4.4,0,0,0-.121-.327c-.081-.238-.2-.245-.323-.2C609.066,678.606,609.183,678.612,609.264,678.851Z" transform="translate(-512.737 -79.066)"/></g></g></svg>